<svg width="126" height="50" viewBox="0 0 126 50" fill="none" xmlns="http://www.w3.org/2000/svg">
<path d="M8.37308 40.2542L6.48354 33.4315C6.05074 32.0747 5.58909 30.827 5.11899 29.7495C4.34347 27.9747 3.4455 26.4884 2.65309 25.1773C1.57286 23.3898 0.640402 21.8465 0.224493 20.0379L0.174525 19.8148C0.155524 19.7283 0.140043 19.6312 0.123154 19.5326C0.0935967 19.3567 0.074596 19.2139 0.0591138 19.0689C0.0506689 19.0041 0.0401114 18.9176 0.0323703 18.8352C0.0133694 18.5882 0 18.3567 0 18.1195C0 13.5023 3.75585 9.74576 8.37238 9.74576C12.9889 9.74576 16.7448 13.5023 16.7448 18.1195C16.7448 18.3595 16.7328 18.5932 16.7117 18.8282C16.7046 18.9098 16.6941 19.0006 16.6842 19.0851C16.6709 19.2117 16.6505 19.3518 16.6279 19.4911C16.611 19.5995 16.592 19.7121 16.5681 19.8233C16.5484 19.9141 16.5329 19.9859 16.5139 20.0576C16.1051 21.8458 15.1712 23.3912 14.0903 25.1802C13.2985 26.4905 12.4013 27.9754 11.6265 29.7488C11.1613 30.8143 10.6996 32.0627 10.2535 33.4582L8.37308 40.2542ZM8.37308 11.2433C4.58204 11.2433 1.49826 14.3278 1.49826 18.1195C1.49826 18.3173 1.50952 18.5108 1.525 18.7051C1.53063 18.7592 1.53907 18.8303 1.54752 18.8972C1.56089 19.0253 1.57497 19.135 1.59397 19.2448C1.61367 19.3652 1.62563 19.4391 1.64112 19.5122L1.68616 19.7149C2.04506 21.2772 2.92051 22.7255 3.9346 24.4025C4.75094 25.7537 5.67565 27.2843 6.49058 29.1499C6.98179 30.2745 7.46174 31.5715 7.91776 33.0043L8.37308 34.644L8.81995 33.0311C9.28935 31.5588 9.7693 30.2626 10.2556 29.1499C11.0698 27.2857 11.9945 25.7558 12.8102 24.406C13.8242 22.7276 14.7004 21.2779 15.0607 19.703C15.0797 19.6298 15.0903 19.5777 15.1022 19.5263C15.1233 19.4285 15.1367 19.344 15.1508 19.2575C15.1698 19.14 15.1867 19.0274 15.1986 18.9134C15.2085 18.8345 15.2169 18.767 15.2219 18.7022C15.2395 18.5059 15.2493 18.3152 15.2493 18.1195C15.2479 14.3285 12.1641 11.2433 8.37308 11.2433ZM8.37238 22.3145C6.05989 22.3145 4.1781 20.432 4.1781 18.1188C4.1781 15.8064 6.05989 13.9246 8.37238 13.9246C10.6856 13.9246 12.5681 15.8064 12.5681 18.1188C12.5681 20.432 10.6856 22.3145 8.37238 22.3145ZM8.37238 15.4221C6.88538 15.4221 5.67565 16.6318 5.67565 18.1188C5.67565 19.6065 6.88538 20.817 8.37238 20.817C9.86008 20.817 11.0705 19.6065 11.0705 18.1188C11.0705 16.6318 9.86008 15.4221 8.37238 15.4221Z" fill="url(#paint0_linear)"/>
<path d="M27.5424 0H25.4237V50H27.5424V0Z" fill="url(#paint1_linear)"/>
<path d="M36.7061 27.1825H43.5909V30.5373H33.0508V13.0123H36.7061V27.1825ZM60.0894 30.5373L58.7625 27.4078H50.3004L48.9735 30.5373H45.093L52.8791 13.0123H56.1838L63.9949 30.5373H60.0894ZM51.5772 24.4286H57.4857L54.5314 17.4937L51.5772 24.4286ZM82.4963 21.224C83.2724 27.1074 79.4419 30.7876 74.7102 30.7876C69.7281 30.7876 65.6222 27.1074 65.6222 21.7748C65.6222 16.4422 69.8282 12.7619 74.7102 12.7619C77.0385 12.7619 79.0914 13.513 80.5936 14.8399L78.3904 17.3184C77.4641 16.6675 76.2123 16.1918 74.9355 16.1918C71.756 16.1918 69.4277 18.5201 69.4277 21.7748C69.4277 25.0294 71.6809 27.3577 74.7102 27.3577C77.0135 27.3577 78.6158 26.5316 79.1165 24.3284H74.9856V21.224H82.4963ZM93.9126 12.7619C98.7945 12.7619 103.001 16.4422 103.001 21.7748C103.001 27.1074 98.7945 30.7876 93.9126 30.7876C89.0306 30.7876 84.8246 27.1074 84.8246 21.7748C84.8246 16.4422 89.0306 12.7619 93.9126 12.7619ZM93.9126 27.3577C96.8668 27.3577 99.1951 25.0294 99.1951 21.7748C99.1951 18.5201 96.8668 16.1918 93.9126 16.1918C90.9584 16.1918 88.63 18.5201 88.63 21.7748C88.63 25.0294 90.9584 27.3577 93.9126 27.3577ZM111.362 12.7119C114.442 12.7119 116.395 14.6396 117.321 16.342L114.617 17.9443C113.666 16.6174 112.739 15.9415 111.362 15.9415C110.136 15.9415 109.234 16.6675 109.234 17.6689C109.234 18.6704 109.81 19.1961 111.187 19.6968L112.389 20.1224C116.269 21.4994 117.797 23.2269 117.797 25.6303C117.797 29.1603 114.442 30.9128 111.463 30.9128C108.308 30.9128 105.855 29.0351 105.003 26.5816L107.807 25.1045C108.433 26.3813 109.485 27.6081 111.463 27.6081C112.89 27.6081 113.991 26.9822 113.991 25.6804C113.991 24.4286 113.24 23.8778 111.337 23.1517L110.261 22.7762C107.682 21.8499 105.604 20.5731 105.604 17.5187C105.604 14.7147 108.233 12.7119 111.362 12.7119Z" fill="url(#paint2_linear)"/>
<path d="M33.4305 36.8031V37.4649H35.0328V37.8446H33.0508V35.2461H34.8795V35.6293H33.4305V36.4165C33.5025 36.3747 33.5826 36.3468 33.6708 36.3329C33.7359 36.3213 33.8195 36.3155 33.9216 36.3155H34.4894V36.7021H33.9216C33.8264 36.7021 33.7428 36.7079 33.6708 36.7195C33.5826 36.7358 33.5025 36.7636 33.4305 36.8031ZM37.9761 35.2461L36.8858 37.8446H36.4365L35.3637 35.2461H35.7747L36.6629 37.4196L37.5581 35.2461H37.9761ZM38.8434 36.8031V37.4649H40.4456V37.8446H38.4637V35.2461H40.2924V35.6293H38.8434V36.4165C38.9154 36.3747 38.9955 36.3468 39.0837 36.3329C39.1487 36.3213 39.2323 36.3155 39.3345 36.3155H39.9023V36.7021H39.3345C39.2393 36.7021 39.1557 36.7079 39.0837 36.7195C38.9955 36.7358 38.9154 36.7636 38.8434 36.8031ZM41.4349 35.6258V36.4896C41.5068 36.4478 41.587 36.42 41.6752 36.406C41.7402 36.3944 41.8238 36.3886 41.926 36.3886H42.4206C42.5576 36.3886 42.6644 36.3573 42.741 36.2946C42.8223 36.2272 42.863 36.1262 42.863 35.9915C42.863 35.8638 42.82 35.7686 42.7341 35.7059C42.6598 35.6525 42.5553 35.6258 42.4206 35.6258H41.4349ZM42.546 37.4336L42.229 36.7683H41.926C41.8308 36.7683 41.7472 36.7741 41.6752 36.7857C41.587 36.8019 41.5068 36.8298 41.4349 36.8693V37.8446H41.0552V35.2461H42.4206C42.5808 35.2461 42.7225 35.2763 42.8455 35.3367C42.9686 35.3971 43.0638 35.483 43.1312 35.5944C43.2032 35.7129 43.2391 35.8522 43.2391 36.0124C43.2391 36.2075 43.1869 36.3677 43.0824 36.4931C42.9779 36.6185 42.8305 36.7056 42.64 36.7543L42.8421 37.1688C42.9001 37.2548 42.9454 37.3151 42.9779 37.35C43.0174 37.3941 43.0551 37.4237 43.0911 37.4388C43.1271 37.4539 43.1741 37.4614 43.2322 37.4614H43.2705L43.3541 37.4579V37.8446C43.2194 37.8446 43.1196 37.8399 43.0545 37.8306C42.9454 37.8121 42.8525 37.7761 42.7759 37.7227C42.6853 37.6576 42.6087 37.5613 42.546 37.4336ZM44.8414 36.3886C44.997 36.2261 45.1375 36.0449 45.2629 35.8452C45.3883 35.6455 45.4881 35.4458 45.5624 35.2461H45.9978C45.8794 35.5225 45.7354 35.7872 45.5659 36.0403C45.4126 36.2702 45.2338 36.4966 45.0295 36.7195V37.8446H44.6533V36.7195C44.449 36.4966 44.2702 36.2702 44.1169 36.0403C43.9474 35.7872 43.8034 35.5225 43.685 35.2461H44.1204C44.1947 35.4458 44.2945 35.6455 44.4199 35.8452C44.5453 36.0449 44.6858 36.2261 44.8414 36.3886ZM48.4012 35.6293H47.4851V37.8446H47.1159V35.6293H46.1894V35.2461H48.4012V35.6293ZM49.265 36.6951V37.8446H48.8889V35.2461H49.265V36.312C49.3579 36.2655 49.4682 36.2423 49.5959 36.2423C49.6424 36.2423 49.755 36.2528 49.9338 36.2737C50.1846 36.3038 50.3541 36.3189 50.4424 36.3189C50.577 36.3189 50.6943 36.2969 50.7942 36.2528V35.2461H51.1738V37.8446H50.7942V36.6359C50.6943 36.68 50.577 36.7021 50.4424 36.7021C50.3541 36.7021 50.1846 36.687 49.9338 36.6568C49.755 36.6359 49.6424 36.6255 49.5959 36.6255C49.4682 36.6255 49.3579 36.6487 49.265 36.6951ZM52.3128 37.8446H51.9401V35.2461H52.3128V37.8446ZM53.1558 35.6119L52.8527 35.2461H53.3439L55.0123 37.2315V35.2461H55.3954V37.8446H55.0193L53.5285 36.0577V37.8446H53.1558V35.6119ZM58.3875 35.5805L58.1437 35.8661C58.0485 35.7686 57.9347 35.692 57.8023 35.6362C57.67 35.5805 57.5306 35.5526 57.3843 35.5526C57.1939 35.5526 57.0203 35.5956 56.8636 35.6815C56.7069 35.7674 56.5844 35.8847 56.4961 36.0333C56.4056 36.1889 56.3603 36.3619 56.3603 36.5523C56.3603 36.7334 56.409 36.9006 56.5066 37.0539C56.5995 37.1979 56.7243 37.3122 56.881 37.397C57.0378 37.4817 57.2067 37.5241 57.3878 37.5241C57.5155 37.5241 57.638 37.5021 57.7553 37.4579C57.8726 37.4138 57.9776 37.3523 58.0705 37.2733V36.7996H57.7361L57.5724 36.4234H58.4467V37.4336C58.3143 37.5822 58.1559 37.6977 57.9713 37.7801C57.7866 37.8626 57.591 37.9038 57.3843 37.9038C57.1266 37.9038 56.8897 37.8411 56.6738 37.7157C56.4625 37.5949 56.2964 37.4289 56.1757 37.2176C56.0503 37.0016 55.9876 36.7648 55.9876 36.507C55.9876 36.2586 56.0538 36.0298 56.1861 35.8208C56.3115 35.6211 56.4816 35.4627 56.6964 35.3454C56.9112 35.2281 57.1417 35.1695 57.3878 35.1695C57.5806 35.1695 57.764 35.2066 57.9382 35.281C58.1077 35.3506 58.2575 35.4505 58.3875 35.5805ZM60.8954 36.3886C61.051 36.2261 61.1915 36.0449 61.3168 35.8452C61.4422 35.6455 61.5421 35.4458 61.6164 35.2461H62.0518C61.9334 35.5225 61.7894 35.7872 61.6199 36.0403C61.4666 36.2702 61.2878 36.4966 61.0835 36.7195V37.8446H60.7073V36.7195C60.5029 36.4966 60.3241 36.2702 60.1709 36.0403C60.0014 35.7872 59.8574 35.5225 59.739 35.2461H60.1744C60.2487 35.4458 60.3485 35.6455 60.4739 35.8452C60.5993 36.0449 60.7398 36.2261 60.8954 36.3886ZM64.7687 36.5279C64.7687 36.3422 64.7211 36.1738 64.6259 36.0229C64.5353 35.8766 64.4117 35.7616 64.2549 35.678C64.0982 35.5944 63.9281 35.5526 63.7446 35.5526C63.5542 35.5526 63.3806 35.5956 63.2239 35.6815C63.0671 35.7674 62.9447 35.8847 62.8564 36.0333C62.7659 36.1889 62.7206 36.3619 62.7206 36.5523C62.7206 36.7334 62.7693 36.9006 62.8669 37.0539C62.9597 37.1979 63.0846 37.3122 63.2413 37.397C63.3981 37.4817 63.5676 37.5241 63.7499 37.5241C63.9321 37.5241 64.1017 37.48 64.2584 37.3918C64.4151 37.3035 64.5388 37.1851 64.6294 37.0365C64.7222 36.8809 64.7687 36.7114 64.7687 36.5279ZM65.1449 36.5488C65.1449 36.7996 65.0798 37.0307 64.9498 37.242C64.8244 37.444 64.6543 37.6048 64.4395 37.7244C64.2247 37.844 63.9931 37.9038 63.7446 37.9038C63.4869 37.9038 63.25 37.8411 63.0341 37.7157C62.8227 37.5949 62.6567 37.4289 62.536 37.2176C62.4106 37.0016 62.3479 36.7648 62.3479 36.507C62.3479 36.2586 62.4141 36.0298 62.5464 35.8208C62.6718 35.6211 62.8419 35.4627 63.0567 35.3454C63.2715 35.2281 63.502 35.1695 63.7481 35.1695C64.0012 35.1695 64.2358 35.231 64.4517 35.3541C64.663 35.4749 64.8302 35.6386 64.9533 35.8452C65.081 36.0612 65.1449 36.2957 65.1449 36.5488ZM66.869 37.9038C66.6252 37.9038 66.4156 37.8614 66.2403 37.7767C66.065 37.6919 65.9315 37.5694 65.8398 37.4092C65.748 37.249 65.7022 37.0574 65.7022 36.8345V35.2461H66.0784V36.8345C66.0784 37.0574 66.1469 37.2281 66.2839 37.3465C66.4209 37.4649 66.6159 37.5241 66.869 37.5241C67.1222 37.5241 67.3172 37.4649 67.4542 37.3465C67.5912 37.2281 67.6597 37.0574 67.6597 36.8345V35.2461H68.0359V36.8345C68.0359 37.0574 67.99 37.249 67.8983 37.4092C67.8066 37.5694 67.6731 37.6919 67.4978 37.7767C67.3224 37.8614 67.1129 37.9038 66.869 37.9038ZM69.7879 35.6119L69.4849 35.2461H69.976L71.6445 37.2315V35.2461H72.0276V37.8446H71.6514L70.1606 36.0577V37.8446H69.7879V35.6119ZM73.1736 36.8031V37.4649H74.7759V37.8446H72.7939V35.2461H74.6226V35.6293H73.1736V36.4165C73.2456 36.3747 73.3257 36.3468 73.4139 36.3329C73.479 36.3213 73.5625 36.3155 73.6647 36.3155H74.2325V36.7021H73.6647C73.5695 36.7021 73.4859 36.7079 73.4139 36.7195C73.3257 36.7358 73.2456 36.7636 73.1736 36.8031ZM75.7651 36.8031V37.4649H77.3673V37.8446H75.3854V35.2461H77.2141V35.6293H75.7651V36.4165C75.8371 36.3747 75.9172 36.3468 76.0054 36.3329C76.0704 36.3213 76.154 36.3155 76.2562 36.3155H76.824V36.7021H76.2562C76.161 36.7021 76.0774 36.7079 76.0054 36.7195C75.9172 36.7358 75.8371 36.7636 75.7651 36.8031ZM78.4959 35.6293V37.4649H79.0845C79.2471 37.4649 79.3934 37.4231 79.5234 37.3395C79.6465 37.2582 79.7429 37.1491 79.8125 37.0121C79.8822 36.8751 79.917 36.7253 79.917 36.5628C79.917 36.3933 79.8839 36.2377 79.8178 36.096C79.7516 35.9544 79.657 35.8417 79.5339 35.7582C79.4015 35.6722 79.2494 35.6293 79.0776 35.6293H78.4959ZM77.9177 35.6293L77.7505 35.2461H79.0741C79.304 35.2461 79.5141 35.3053 79.7046 35.4238C79.888 35.5376 80.0331 35.6931 80.1399 35.8905C80.2468 36.0879 80.3002 36.3027 80.3002 36.5349C80.3002 36.7091 80.2659 36.8815 80.1974 37.0522C80.1289 37.2228 80.0343 37.372 79.9135 37.4997C79.7974 37.6251 79.6732 37.7145 79.5408 37.7679C79.4131 37.819 79.261 37.8446 79.0845 37.8446H78.1232V35.6293H77.9177ZM83.7694 35.6293H82.8534V37.8446H82.4841V35.6293H81.5576V35.2461H83.7694V35.6293ZM86.5037 36.5279C86.5037 36.3422 86.4561 36.1738 86.3609 36.0229C86.2703 35.8766 86.1467 35.7616 85.99 35.678C85.8332 35.5944 85.6631 35.5526 85.4797 35.5526C85.2893 35.5526 85.1157 35.5956 84.9589 35.6815C84.8022 35.7674 84.6797 35.8847 84.5915 36.0333C84.5009 36.1889 84.4556 36.3619 84.4556 36.5523C84.4556 36.7334 84.5044 36.9006 84.6019 37.0539C84.6948 37.1979 84.8196 37.3122 84.9763 37.397C85.1331 37.4817 85.3026 37.5241 85.4849 37.5241C85.6672 37.5241 85.8367 37.48 85.9934 37.3918C86.1502 37.3035 86.2738 37.1851 86.3644 37.0365C86.4573 36.8809 86.5037 36.7114 86.5037 36.5279ZM86.8799 36.5488C86.8799 36.7996 86.8149 37.0307 86.6848 37.242C86.5595 37.444 86.3894 37.6048 86.1746 37.7244C85.9598 37.844 85.7281 37.9038 85.4797 37.9038C85.2219 37.9038 84.9851 37.8411 84.7691 37.7157C84.5578 37.5949 84.3918 37.4289 84.271 37.2176C84.1456 37.0016 84.0829 36.7648 84.0829 36.507C84.0829 36.2586 84.1491 36.0298 84.2815 35.8208C84.4068 35.6211 84.5769 35.4627 84.7917 35.3454C85.0065 35.2281 85.237 35.1695 85.4832 35.1695C85.7363 35.1695 85.9708 35.231 86.1868 35.3541C86.3981 35.4749 86.5653 35.6386 86.6883 35.8452C86.816 36.0612 86.8799 36.2957 86.8799 36.5488ZM89.4958 36.8031L88.7957 37.8446H88.416V35.2461H88.7957V37.1863L90.1158 35.2461H90.5721L89.7187 36.4687L90.1854 37.1688C90.2598 37.2803 90.3329 37.3593 90.4049 37.4057C90.4629 37.4428 90.5245 37.4614 90.5895 37.4614L90.6975 37.4579V37.8446H90.6278C90.5117 37.8469 90.4269 37.8423 90.3735 37.8306C90.2876 37.8167 90.2087 37.7819 90.1367 37.7261C90.0554 37.6611 89.973 37.5636 89.8894 37.4336L89.4958 36.8031ZM91.3662 35.6119L91.0632 35.2461H91.5543L93.2228 37.2315V35.2461H93.6059V37.8446H93.2297L91.7389 36.0577V37.8446H91.3662V35.6119ZM96.6189 36.5279C96.6189 36.3422 96.5713 36.1738 96.4761 36.0229C96.3855 35.8766 96.2619 35.7616 96.1051 35.678C95.9484 35.5944 95.7783 35.5526 95.5948 35.5526C95.4044 35.5526 95.2308 35.5956 95.0741 35.6815C94.9173 35.7674 94.7949 35.8847 94.7066 36.0333C94.616 36.1889 94.5708 36.3619 94.5708 36.5523C94.5708 36.7334 94.6195 36.9006 94.7171 37.0539C94.8099 37.1979 94.9348 37.3122 95.0915 37.397C95.2482 37.4817 95.4178 37.5241 95.6 37.5241C95.7823 37.5241 95.9518 37.48 96.1086 37.3918C96.2653 37.3035 96.389 37.1851 96.4795 37.0365C96.5724 36.8809 96.6189 36.7114 96.6189 36.5279ZM96.9951 36.5488C96.9951 36.7996 96.93 37.0307 96.8 37.242C96.6746 37.444 96.5045 37.6048 96.2897 37.7244C96.0749 37.844 95.8433 37.9038 95.5948 37.9038C95.3371 37.9038 95.1002 37.8411 94.8843 37.7157C94.6729 37.5949 94.5069 37.4289 94.3862 37.2176C94.2608 37.0016 94.1981 36.7648 94.1981 36.507C94.1981 36.2586 94.2642 36.0298 94.3966 35.8208C94.522 35.6211 94.6921 35.4627 94.9069 35.3454C95.1217 35.2281 95.3522 35.1695 95.5983 35.1695C95.8514 35.1695 96.086 35.231 96.3019 35.3541C96.5132 35.4749 96.6804 35.6386 96.8035 35.8452C96.9312 36.0612 96.9951 36.2957 96.9951 36.5488ZM100.447 35.2461H100.847L100.018 37.8446H99.6074L99.1059 36.3085L98.6182 37.8446H98.2072L97.326 35.2461H97.7161L98.4057 37.1897L98.8934 35.6571L98.761 35.2461H99.1511L99.806 37.1897L100.447 35.2461Z" fill="url(#paint3_linear)"/>
<defs>
<linearGradient id="paint0_linear" x1="0" y1="9.74576" x2="16.7448" y2="9.74576" gradientUnits="userSpaceOnUse">
<stop stop-color="#8F5E25"/>
<stop offset="0.5" stop-color="#FBF4A1"/>
<stop offset="1" stop-color="#8F5E25"/>
</linearGradient>
<linearGradient id="paint1_linear" x1="25.4237" y1="0" x2="27.5424" y2="0" gradientUnits="userSpaceOnUse">
<stop stop-color="#8F5E25"/>
<stop offset="0.5" stop-color="#FBF4A1"/>
<stop offset="1" stop-color="#8F5E25"/>
</linearGradient>
<linearGradient id="paint2_linear" x1="33.0508" y1="12.7119" x2="117.797" y2="12.7119" gradientUnits="userSpaceOnUse">
<stop stop-color="#8F5E25"/>
<stop offset="0.5" stop-color="#FBF4A1"/>
<stop offset="1" stop-color="#8F5E25"/>
</linearGradient>
<linearGradient id="paint3_linear" x1="33.0508" y1="35.1695" x2="100.847" y2="35.1695" gradientUnits="userSpaceOnUse">
<stop stop-color="#8F5E25"/>
<stop offset="0.5" stop-color="#FBF4A1"/>
<stop offset="1" stop-color="#8F5E25"/>
</linearGradient>
</defs>
</svg>
