<svg xmlns="http://www.w3.org/2000/svg" width="126" height="50" fill="none" xmlns:v="https://vecta.io/nano"><path d="M8.373 40.254l-1.9-6.823L5.12 29.75c-.776-1.775-1.673-3.26-2.466-4.572-1.08-1.787-2.013-3.33-2.43-5.14l-.05-.223-.05-.282-.064-.464-.027-.234L0 18.12c0-4.617 3.756-8.374 8.372-8.374s8.372 3.757 8.372 8.374c0 .24-.012.474-.033.71a8.99 8.99 0 0 1-.027.257c-.013.127-.034.267-.056.406a5.94 5.94 0 0 1-.06.332l-.054.234c-.41 1.788-1.343 3.334-2.424 5.123-.792 1.3-1.69 2.795-2.464 4.57-.465 1.066-.927 2.314-1.373 3.71l-1.88 6.796zm0-29.01c-3.79 0-6.875 3.085-6.875 6.876 0 .198.01.39.027.586l.023.192c.013.128.027.238.046.348l.047.267.045.203c.36 1.562 1.234 3.01 2.248 4.688.816 1.35 1.74 2.882 2.556 4.747.49 1.125.97 2.422 1.427 3.854l.455 1.64.447-1.613c.47-1.472.95-2.77 1.436-3.88.814-1.864 1.74-3.394 2.555-4.744 1.014-1.678 1.9-3.128 2.25-4.703.02-.073.03-.125.04-.177.02-.098.034-.182.05-.27a6.14 6.14 0 0 0 .048-.344c.01-.08.018-.146.023-.21.018-.196.027-.387.027-.583a6.89 6.89 0 0 0-6.876-6.876zm-.001 11.07a4.2 4.2 0 0 1-4.194-4.196 4.2 4.2 0 0 1 4.194-4.194 4.2 4.2 0 0 1 4.196 4.194 4.2 4.2 0 0 1-4.196 4.196zm0-6.892a2.7 2.7 0 0 0-2.697 2.697 2.7 2.7 0 0 0 2.697 2.698 2.7 2.7 0 0 0 2.698-2.698 2.7 2.7 0 0 0-2.698-2.697z" fill="url(#A)"/><path d="M27.542 0h-2.12v50h2.12V0z" fill="url(#B)"/><path d="M36.706 27.183h6.885v3.355H33.05V13.012h3.655v14.17zm23.383 3.355l-1.327-3.13H50.3l-1.327 3.13h-3.88l7.786-17.525h3.305l7.81 17.525H60.09zm-8.512-6.11h5.91l-2.954-6.935-2.954 6.935zm30.92-3.205c.776 5.883-3.054 9.564-7.786 9.564-4.982 0-9.088-3.68-9.088-9.013s4.206-9.013 9.088-9.013c2.328 0 4.38.75 5.883 2.078l-2.203 2.48c-.926-.65-2.178-1.127-3.455-1.127-3.18 0-5.508 2.328-5.508 5.583s2.253 5.583 5.282 5.583c2.303 0 3.906-.826 4.406-3.03h-4.13v-3.104h7.51zm11.416-8.462c4.882 0 9.088 3.68 9.088 9.013s-4.207 9.013-9.088 9.013-9.088-3.68-9.088-9.013 4.206-9.013 9.088-9.013zm0 14.596c2.954 0 5.282-2.328 5.282-5.583s-2.328-5.583-5.282-5.583-5.283 2.328-5.283 5.583 2.328 5.583 5.283 5.583zm17.45-14.646c3.08 0 5.033 1.928 5.96 3.63l-2.704 1.602c-.95-1.327-1.878-2.003-3.255-2.003-1.226 0-2.128.726-2.128 1.727s.576 1.527 1.953 2.028l1.202.426c3.88 1.377 5.408 3.105 5.408 5.508 0 3.53-3.355 5.283-6.334 5.283-3.155 0-5.608-1.878-6.46-4.33l2.804-1.477c.626 1.277 1.678 2.504 3.656 2.504 1.427 0 2.528-.626 2.528-1.928 0-1.252-.75-1.803-2.654-2.53l-1.076-.376c-2.58-.926-4.657-2.203-4.657-5.257 0-2.804 2.63-4.807 5.758-4.807z" fill="url(#C)"/><path d="M33.43 36.803v.662h1.602v.38H33.05v-2.6h1.83v.383h-1.45v.787c.072-.042.152-.07.24-.084.065-.012.15-.017.25-.017h.568v.387h-.568c-.095 0-.18.006-.25.017-.088.016-.168.044-.24.084zm4.546-1.557l-1.1 2.6h-.45l-1.073-2.6h.41l.888 2.174.895-2.174h.418zm.867 1.557v.662h1.602v.38h-1.982v-2.6h1.83v.383h-1.45v.787c.072-.042.152-.07.24-.084.065-.012.15-.017.25-.017h.568v.387h-.568c-.095 0-.18.006-.25.017-.088.016-.168.044-.24.084zm2.59-1.177v.864a.69.69 0 0 1 .24-.084c.065-.012.15-.017.25-.017h.495c.137 0 .244-.03.32-.094s.122-.168.122-.303c0-.128-.043-.223-.13-.286a.53.53 0 0 0-.313-.08h-.986zm1.11 1.808l-.317-.665h-.303c-.095 0-.18.006-.25.017-.088.016-.168.044-.24.084v.975h-.38v-2.6h1.365c.16 0 .302.03.425.09a.67.67 0 0 1 .286.258.79.79 0 0 1 .108.418c0 .195-.052.355-.157.48a.82.82 0 0 1-.442.261l.202.414.136.18c.04.044.077.074.113.09a.37.37 0 0 0 .141.023h.038l.084-.003v.387c-.135 0-.235-.005-.3-.014a.68.68 0 0 1-.279-.108c-.09-.065-.167-.16-.23-.29zm2.295-1.045c.156-.162.296-.344.422-.543a3.28 3.28 0 0 0 .299-.599h.435c-.118.276-.262.54-.432.794-.153.23-.332.456-.536.68v1.125h-.376V36.72c-.204-.223-.383-.45-.536-.68-.17-.253-.313-.518-.432-.794h.435a3.28 3.28 0 0 0 .3.599c.125.2.266.38.422.543zm3.56-.76h-.916v2.215h-.37V35.63h-.927v-.383H48.4v.383zm.864 1.066v1.15h-.376v-2.6h.376v1.066a.73.73 0 0 1 .331-.07 4.09 4.09 0 0 1 .338.031l.51.045c.135 0 .252-.022.352-.066v-1.007h.38v2.6h-.38v-1.21c-.1.044-.217.066-.352.066-.088 0-.258-.015-.51-.045l-.338-.03c-.128 0-.238.023-.33.07zm3.048 1.15h-.373v-2.6h.373v2.6zm.843-2.233l-.303-.366h.49l1.668 1.985v-1.985h.383v2.6h-.376l-1.49-1.787v1.787h-.373v-2.233zm5.232-.03l-.244.286a1.03 1.03 0 0 0-.341-.23c-.132-.056-.272-.084-.418-.084-.2 0-.364.043-.52.13a.95.95 0 0 0-.367.352c-.1.156-.136.33-.136.52 0 .18.05.348.146.502.093.144.218.258.374.343a1.05 1.05 0 0 0 .507.127c.128 0 .25-.022.367-.066s.222-.106.315-.185V36.8h-.334l-.164-.376h.874v1c-.132.15-.29.264-.475.346s-.38.124-.587.124a1.39 1.39 0 0 1-.711-.188c-.21-.12-.377-.287-.498-.498a1.39 1.39 0 0 1-.188-.711 1.26 1.26 0 0 1 .199-.686 1.36 1.36 0 0 1 .51-.475 1.42 1.42 0 0 1 .691-.176c.193 0 .376.037.55.11a1.36 1.36 0 0 1 .449.3zm2.508.808a3.38 3.38 0 0 0 .421-.543 3.28 3.28 0 0 0 .3-.599h.435c-.118.276-.262.54-.432.794-.153.23-.332.456-.536.68v1.125h-.376V36.72c-.204-.223-.383-.45-.536-.68-.17-.253-.314-.518-.432-.794h.435a3.28 3.28 0 0 0 .3.599c.125.2.266.38.422.543zm3.873.14c0-.186-.048-.354-.143-.505s-.214-.26-.37-.345-.327-.125-.5-.125c-.2 0-.364.043-.52.13a.95.95 0 0 0-.367.352c-.1.156-.136.33-.136.52 0 .18.05.348.146.502.093.144.218.258.374.343s.326.127.51.127a1.02 1.02 0 0 0 .508-.132 1 1 0 0 0 .371-.355c.093-.156.14-.325.14-.51zm.376.02a1.3 1.3 0 0 1-.195.693c-.125.202-.295.363-.5.482s-.446.18-.695.18a1.39 1.39 0 0 1-.71-.188c-.21-.12-.377-.287-.498-.498a1.39 1.39 0 0 1-.188-.711 1.26 1.26 0 0 1 .198-.686 1.36 1.36 0 0 1 .51-.475 1.42 1.42 0 0 1 .691-.176c.253 0 .488.062.704.185a1.36 1.36 0 0 1 .693 1.195zm1.724 1.355c-.244 0-.453-.042-.63-.127a.9.9 0 0 1-.401-.367c-.092-.16-.138-.352-.138-.575v-1.588h.376v1.588c0 .223.07.394.206.512s.332.178.585.178.448-.06.585-.178.206-.29.206-.512v-1.588h.376v1.588c0 .223-.046.415-.138.575a.9.9 0 0 1-.401.367c-.175.085-.385.127-.63.127zm2.92-2.292l-.303-.366h.49l1.668 1.985v-1.985h.383v2.6h-.376l-1.49-1.787v1.787h-.373v-2.233zm3.386 1.19v.662h1.602v.38h-1.982v-2.6h1.83v.383h-1.45v.787c.072-.042.152-.07.24-.084.065-.012.15-.017.25-.017h.568v.387h-.568c-.095 0-.18.006-.25.017-.088.016-.168.044-.24.084zm2.592 0v.662h1.602v.38h-1.982v-2.6h1.83v.383h-1.45v.787c.072-.042.152-.07.24-.084.065-.012.15-.017.25-.017h.568v.387h-.568c-.095 0-.18.006-.25.017-.088.016-.168.044-.24.084zm2.73-1.174v1.836h.59c.163 0 .31-.042.44-.125a.84.84 0 0 0 .289-.327c.07-.137.105-.287.105-.45a1.09 1.09 0 0 0-.099-.467c-.066-.142-.16-.254-.284-.338a.82.82 0 0 0-.456-.129h-.582zm-.578 0l-.167-.383h1.324a1.17 1.17 0 0 1 .63.178 1.22 1.22 0 0 1 .435.467 1.33 1.33 0 0 1 .16.644 1.38 1.38 0 0 1-.103.517c-.07.17-.163.32-.284.447s-.24.215-.373.268-.28.077-.456.077h-.96V35.63h-.206zm5.852 0h-.916v2.215h-.37V35.63h-.927v-.383h2.212v.383zm2.734.9c0-.186-.048-.354-.143-.505s-.214-.26-.37-.345a1.07 1.07 0 0 0-.51-.125c-.2 0-.364.043-.52.13a.95.95 0 0 0-.367.352c-.09.156-.136.33-.136.52 0 .18.05.348.146.502.093.144.218.258.374.343s.326.127.51.127a1.02 1.02 0 0 0 .508-.132 1 1 0 0 0 .371-.355c.093-.156.14-.325.14-.51zm.376.02c0 .25-.065.482-.195.693-.125.202-.295.363-.5.482s-.447.18-.695.18a1.39 1.39 0 0 1-.711-.188c-.21-.12-.377-.287-.498-.498a1.39 1.39 0 0 1-.188-.711c0-.248.066-.477.2-.686a1.36 1.36 0 0 1 .51-.475 1.42 1.42 0 0 1 .691-.176c.253 0 .488.062.704.185s.378.284.5.49a1.36 1.36 0 0 1 .192.704zm2.616.254l-.7 1.04h-.38v-2.6h.38v1.94l1.32-1.94h.456l-.853 1.223.467.7c.074.11.147.19.22.237.058.037.12.056.185.056l.108-.003v.387h-.07c-.116.002-.2-.002-.254-.014-.086-.014-.165-.05-.237-.104-.08-.065-.164-.163-.247-.293l-.394-.63zm1.87-1.19l-.303-.366h.49l1.67 1.985v-1.985h.383v2.6h-.376l-1.49-1.787v1.787h-.373v-2.233zm5.253.916c0-.186-.048-.354-.143-.505s-.214-.26-.37-.345-.327-.125-.5-.125c-.2 0-.364.043-.52.13a.95.95 0 0 0-.368.352c-.09.156-.136.33-.136.52 0 .18.05.348.146.502.093.144.218.258.374.343s.326.127.508.127a1.02 1.02 0 0 0 .509-.132 1 1 0 0 0 .371-.355c.093-.156.14-.325.14-.51zm.376.02a1.3 1.3 0 0 1-.195.693c-.125.202-.296.363-.5.482s-.446.18-.695.18a1.39 1.39 0 0 1-.711-.188c-.21-.12-.377-.287-.498-.498a1.39 1.39 0 0 1-.188-.711c0-.248.066-.477.2-.686a1.36 1.36 0 0 1 .51-.475 1.42 1.42 0 0 1 .691-.176c.253 0 .488.062.704.185a1.36 1.36 0 0 1 .693 1.195zm3.452-1.303h.4l-.83 2.6h-.41l-.5-1.536-.488 1.536h-.41l-.88-2.6h.4l.7 1.944.488-1.533-.132-.41h.4l.655 1.944.64-1.944z" fill="url(#D)"/><defs><linearGradient id="A" x1="0" y1="9.746" x2="16.745" y2="9.746" gradientUnits="userSpaceOnUse"><stop stop-color="#8f5e25"/><stop offset=".5" stop-color="#fbf4a1"/><stop offset="1" stop-color="#8f5e25"/></linearGradient><linearGradient id="B" x1="25.424" y1="0" x2="27.542" y2="0" gradientUnits="userSpaceOnUse"><stop stop-color="#8f5e25"/><stop offset=".5" stop-color="#fbf4a1"/><stop offset="1" stop-color="#8f5e25"/></linearGradient><linearGradient id="C" x1="33.051" y1="12.712" x2="117.797" y2="12.712" gradientUnits="userSpaceOnUse"><stop stop-color="#8f5e25"/><stop offset=".5" stop-color="#fbf4a1"/><stop offset="1" stop-color="#8f5e25"/></linearGradient><linearGradient id="D" x1="33.051" y1="35.17" x2="100.847" y2="35.17" gradientUnits="userSpaceOnUse"><stop stop-color="#8f5e25"/><stop offset=".5" stop-color="#fbf4a1"/><stop offset="1" stop-color="#8f5e25"/></linearGradient></defs></svg>